<?xml version="1.0" encoding="UTF-8"?>
<svg xmlns="http://www.w3.org/2000/svg" xmlns:xlink="http://www.w3.org/1999/xlink" viewBox="0 0 163.95 37.41">
  <defs>
    <linearGradient id="linear-gradient" x1="0" y1="7.71" x2="136.65" y2="7.71" gradientUnits="userSpaceOnUse">
      <stop offset=".01" stop-color="#2947e2"/>
      <stop offset=".53" stop-color="#29abe2"/>
      <stop offset="1" stop-color="#36dfe5"/>
    </linearGradient>
    <linearGradient id="linear-gradient-2" y1="-156.62" y2="-156.62" gradientTransform="translate(0 -126.92) scale(1 -1)" xlink:href="#linear-gradient"/>
    <linearGradient id="linear-gradient-3" x1="19.95" y1="18.71" x2="163.95" y2="18.71" gradientUnits="userSpaceOnUse">
      <stop offset=".01" stop-color="#2947e2"/>
      <stop offset=".53" stop-color="#29abe2"/>
      <stop offset="1" stop-color="#36dfe5"/>
    </linearGradient>
  </defs>
  <g id="Design">
    <path d="M134.3,1.68c-.59-.53-1.15-1.1-1.7-1.68H34.16l-14.35,12.68H2.5c-.83.89-1.67,1.79-2.49,2.72,0,0,0,0-.01.01h21.12l13.58-12h101.95c-.82-.52-1.62-1.07-2.35-1.73Z" style="fill: url(#linear-gradient); stroke-width: 0px;"/>
    <path d="M134.3,35.73c-.59.53-1.15,1.1-1.7,1.68H34.16l-14.35-12.68H2.5c-.83-.89-1.67-1.79-2.49-2.72,0,0,0,0-.01-.01h21.12l13.58,12h101.95c-.82.52-1.62,1.07-2.35,1.73Z" style="fill: url(#linear-gradient-2); stroke-width: 0px;"/>
    <path d="M22.6,16.2v5.38c4.73,3.78,9.59,7.41,14.37,11.13h121.6c1.86-1.42,3.63-2.93,5.37-4.48V9.48c-1.74-1.65-3.51-3.26-5.37-4.77H36.13c-.14.15-.27.31-.44.44" style="fill: url(#linear-gradient-3); opacity: .5; stroke-width: 0px;"/>
  </g>
  <g id="Text">
    <text transform="translate(31.51 29.27)" style="fill: #fff; font-family: MS-UIGothic, &apos;MS UI Gothic&apos;; font-size: 28px;"><tspan x="0" y="0">SETTINGS</tspan></text>
  </g>
</svg>