<?xml version="1.0" encoding="UTF-8"?>
<svg xmlns="http://www.w3.org/2000/svg" xmlns:xlink="http://www.w3.org/1999/xlink" viewBox="0 0 182.47 129.72">
  <defs>
    <linearGradient id="New_Gradient_Swatch_2" data-name="New Gradient Swatch 2" x1="0" y1="28" x2="136.65" y2="28" gradientUnits="userSpaceOnUse">
      <stop offset=".01" stop-color="#2947e2"/>
      <stop offset=".53" stop-color="#29abe2"/>
      <stop offset="1" stop-color="#36dfe5"/>
    </linearGradient>
    <linearGradient id="New_Gradient_Swatch_2-2" data-name="New Gradient Swatch 2" y1="-48.33" y2="-48.33" gradientTransform="translate(0 1.67) scale(1 -1)" xlink:href="#New_Gradient_Swatch_2"/>
    <linearGradient id="linear-gradient" x1="19.95" y1="39" x2="163.95" y2="39" gradientUnits="userSpaceOnUse">
      <stop offset=".01" stop-color="#2947e2"/>
      <stop offset=".53" stop-color="#29abe2"/>
      <stop offset="1" stop-color="#36dfe5"/>
    </linearGradient>
  </defs>
  <g id="Design">
    <path d="M134.3,21.98c-.59-.53-1.15-1.1-1.7-1.68H34.16l-14.35,12.68H2.5c-.83.89-1.67,1.79-2.49,2.72,0,0,0,0-.01.01h21.12l13.58-12h101.95c-.82-.52-1.62-1.07-2.35-1.73Z" style="fill: url(#New_Gradient_Swatch_2); stroke-width: 0px;"/>
    <path d="M134.3,56.02c-.59.53-1.15,1.1-1.7,1.68H34.16l-14.35-12.68H2.5c-.83-.89-1.67-1.79-2.49-2.72,0,0,0,0-.01-.01h21.12l13.58,12h101.95c-.82.52-1.62,1.07-2.35,1.73Z" style="fill: url(#New_Gradient_Swatch_2-2); stroke-width: 0px;"/>
    <path d="M22.6,36.49v5.38c4.73,3.78,9.59,7.41,14.37,11.13h121.6c1.86-1.42,3.63-2.93,5.37-4.48v-18.75c-1.74-1.65-3.51-3.26-5.37-4.77H36.13c-.14.15-.27.31-.44.44" style="fill: url(#linear-gradient); opacity: .5; stroke-width: 0px;"/>
  </g>
  <g id="Text">
    <text transform="translate(52.62 49.56)" style="fill: #fff; font-family: MS-UIGothic, &apos;MS UI Gothic&apos;; font-size: 28px;"><tspan x="0" y="0">START</tspan></text>
  </g>
</svg>