<?xml version="1.0" encoding="UTF-8"?>
<svg id="Design" xmlns="http://www.w3.org/2000/svg" xmlns:xlink="http://www.w3.org/1999/xlink" viewBox="0 0 176.71 129.72">
  <defs>
    <linearGradient id="New_Gradient_Swatch_5" data-name="New Gradient Swatch 5" x1="126.1" y1="21" x2="126.1" y2="0" gradientUnits="userSpaceOnUse">
      <stop offset=".01" stop-color="#c4275b"/>
      <stop offset=".26" stop-color="#db2a33"/>
      <stop offset=".72" stop-color="#e02b2b"/>
      <stop offset="1" stop-color="#e28837"/>
    </linearGradient>
    <linearGradient id="New_Gradient_Swatch_5-2" data-name="New Gradient Swatch 5" x1="126.7" y1="112" x2="126.7" y2="21" xlink:href="#New_Gradient_Swatch_5"/>
    <linearGradient id="New_Gradient_Swatch_5-3" data-name="New Gradient Swatch 5" x1="140.7" y1="74" x2="140.7" y2="41" xlink:href="#New_Gradient_Swatch_5"/>
  </defs>
  <path d="M130.24,7h-7.64v14h7.64V7ZM145.51,7.64V0h-38.82v7.64h38.82Z" style="fill: url(#New_Gradient_Swatch_5); stroke-width: 0px;"/>
  <path d="M126.7,21c-25.13,0-45.5,20.37-45.5,45.5s20.37,45.5,45.5,45.5,45.5-20.37,45.5-45.5-20.37-45.5-45.5-45.5ZM127.2,30c-20.43,0-37,16.57-37,37s16.57,37,37,37,37-16.57,37-37-16.57-37-37-37Z" style="fill: url(#New_Gradient_Swatch_5-2); fill-rule: evenodd; stroke-width: 0px;"/>
  <path d="M123.2,74h6.25v-33h-6.25v33ZM123.2,68.11v5.89h35v-5.89h-35Z" style="fill: url(#New_Gradient_Swatch_5-3); stroke-width: 0px;"/>
</svg>